<svg width="86" height="46" viewBox="0 0 86 46" fill="none" xmlns="http://www.w3.org/2000/svg">
<path d="M8.82314 27.3418C7.30236 26.6133 5.86866 25.804 4.34117 25.2374C3.18886 24.8125 2.98118 24.1582 3.00127 23.0386C3.06827 19.3897 3.03477 15.734 3.02137 12.0851C3.02137 11.6197 3.10177 11.3566 3.57073 11.0936C6.01605 9.73114 8.42787 8.30124 10.833 6.90507C11.0876 7.10742 11.3221 7.28952 11.6503 7.55257C11.6503 6.14291 11.6503 4.94234 11.6503 3.49221C11.168 3.81596 10.8598 4.0183 10.364 4.35554C10.8531 3.43825 11.2149 2.64911 11.6905 1.94091C11.8245 1.74531 12.3203 1.74531 12.6486 1.74531C14.6115 1.7588 14.3167 1.4418 14.3368 3.46523C14.3368 3.82945 14.2631 4.19367 14.2095 4.68604C14.5311 4.6051 14.8259 4.59161 15.0537 4.46346C17.2176 3.24265 19.3749 2.00836 21.5321 0.774062C21.9475 0.537994 22.336 0.254713 22.7648 0.0591143C22.9457 -0.0218232 23.2539 -0.0218232 23.4281 0.0726038C27.555 2.44677 31.6618 4.84117 35.7886 7.22208C38.1 8.55754 40.4381 9.8458 42.7494 11.188C42.9437 11.3027 43.1246 11.6264 43.1313 11.8557C43.1581 14.6953 43.138 17.5349 43.1581 20.3744C43.1648 20.941 42.9102 21.0556 42.4212 21.0489C40.9674 21.0287 39.5069 21.0219 38.0531 21.0556C37.4635 21.0691 37.3161 20.8263 37.3228 20.2867C37.3496 18.5533 37.3161 16.8267 37.3429 15.0932C37.3496 14.6346 37.1955 14.4188 36.7869 14.1894C33.6649 12.4156 30.563 10.5945 27.4545 8.79361C26.2151 8.07866 24.9488 7.41093 23.7362 6.66226C23.1266 6.28455 22.6643 6.54085 22.1887 6.81739C18.6111 8.87455 15.0403 10.9385 11.4694 13.0024C10.7124 13.4408 9.93526 13.8387 9.21171 14.3243C9.01073 14.4592 8.87004 14.8302 8.87004 15.0932C8.84994 19.012 8.85664 22.9374 8.85664 26.8561C8.84324 26.9776 8.83654 27.1124 8.82314 27.3418Z" fill="#BB912E"/>
<path d="M3.02135 28.1017C5.28602 29.3447 7.38988 30.5003 9.49373 31.6627C12.3279 33.2349 15.1487 34.8206 17.9762 36.3996C19.5172 37.2596 21.0583 38.1196 22.6194 38.9393C22.8606 39.067 23.2894 39.0804 23.5172 38.9528C27.8054 36.534 32.0801 34.0883 36.3481 31.6291C36.7702 31.3872 37.4469 31.3066 37.2928 30.5406C37.1521 29.8687 36.4754 29.3514 35.6781 29.3514C31.8523 29.3447 28.0265 29.3514 24.2006 29.3514C23.9058 29.3514 23.6177 29.3514 23.276 29.3514C23.276 28.1017 23.276 26.9124 23.276 25.6358C23.5373 25.6358 23.7718 25.6358 24.0063 25.6358C28.9913 25.6358 33.9762 25.6291 38.9612 25.6358C41.0315 25.6358 42.452 26.6907 43.0148 28.6257C43.0885 28.8743 43.1287 29.1431 43.1287 29.4051C43.1421 30.7758 43.0885 32.1532 43.1555 33.5239C43.189 34.1756 42.9143 34.4645 42.3984 34.7602C36.1136 38.3279 29.8422 41.9158 23.5574 45.4702C23.3095 45.6113 22.8338 45.5978 22.5792 45.4567C16.2877 41.889 10.0163 38.3078 3.73157 34.7467C3.20226 34.4511 2.98115 34.1286 3.00125 33.497C3.05485 31.7501 3.02135 30.0098 3.02135 28.1017Z" fill="black"/>
<path d="M22.6452 17.0784C21.6297 17.0784 20.721 17.115 19.819 17.0491C19.6186 17.0344 19.3045 16.6756 19.2845 16.4559C19.2177 15.6431 19.2177 14.8229 19.2845 14.0101C19.3045 13.7904 19.6252 13.4462 19.8324 13.4242C20.574 13.351 21.329 13.4096 22.0773 13.3876C22.4849 13.3803 22.6586 13.5414 22.6519 14.0027C22.6319 14.9913 22.6452 15.9799 22.6452 17.0784Z" fill="black"/>
<path d="M23.5132 17.0772C23.5132 15.9769 23.5266 14.9867 23.5066 14.0038C23.4999 13.5563 23.6535 13.373 24.0745 13.3876C24.8228 13.4096 25.5778 13.3509 26.3194 13.4243C26.5265 13.4463 26.8539 13.7837 26.874 14.0038C26.9408 14.818 26.9408 15.6395 26.874 16.4537C26.8539 16.6811 26.5399 17.0405 26.3461 17.0552C25.4441 17.1139 24.5355 17.0772 23.5132 17.0772Z" fill="#BB912E"/>
<path d="M23.5132 17.9493C24.5033 17.9493 25.4866 17.9246 26.4563 17.974C26.6134 17.9802 26.8729 18.2709 26.8865 18.4441C26.9343 19.1615 26.9411 19.879 26.8797 20.5964C26.866 20.7634 26.5451 21.0356 26.3539 21.0479C25.4252 21.0974 24.4965 21.0665 23.5063 21.0665C23.5132 20.0583 23.5132 19.0873 23.5132 17.9493Z" fill="black"/>
<path d="M22.6521 21.0675C21.6746 21.0675 20.7515 21.0983 19.8351 21.0428C19.6315 21.0305 19.3056 20.7281 19.2853 20.543C19.2174 19.8582 19.2174 19.161 19.2853 18.4761C19.3056 18.291 19.6383 17.9887 19.8419 17.9763C20.7583 17.9208 21.6746 17.9517 22.6453 17.9517C22.6521 19.0622 22.6521 20.0124 22.6521 21.0675Z" fill="#BB912E"/>
</svg>