<svg width="22" height="13" viewBox="0 0 22 13" fill="none" xmlns="http://www.w3.org/2000/svg">
<path d="M11 0C10.1491 0 9.33305 0.34241 8.73137 0.951903C8.12969 1.5614 7.79167 2.38805 7.79167 3.25C7.79167 4.11195 8.12969 4.9386 8.73137 5.5481C9.33305 6.15759 10.1491 6.5 11 6.5C11.8509 6.5 12.667 6.15759 13.2686 5.5481C13.8703 4.9386 14.2083 4.11195 14.2083 3.25C14.2083 2.38805 13.8703 1.5614 13.2686 0.951903C12.667 0.34241 11.8509 0 11 0ZM11 1.85714C11.3647 1.85714 11.7144 2.00389 11.9723 2.2651C12.2301 2.52631 12.375 2.88059 12.375 3.25C12.375 3.61941 12.2301 3.97369 11.9723 4.2349C11.7144 4.49611 11.3647 4.64286 11 4.64286C10.6353 4.64286 10.2856 4.49611 10.0277 4.2349C9.76987 3.97369 9.625 3.61941 9.625 3.25C9.625 2.88059 9.76987 2.52631 10.0277 2.2651C10.2856 2.00389 10.6353 1.85714 11 1.85714ZM5.04167 2.78571C4.43388 2.78571 3.85098 3.03029 3.42121 3.46564C2.99144 3.901 2.75 4.49146 2.75 5.10714C2.75 5.98 3.23583 6.73214 3.9325 7.13143C4.2625 7.31714 4.63833 7.42857 5.04167 7.42857C5.445 7.42857 5.82083 7.31714 6.15083 7.13143C6.49 6.93643 6.77417 6.65786 6.985 6.32357C6.31583 5.44143 5.95833 4.36429 5.95833 3.25C5.95833 3.16643 5.95833 3.07357 5.95833 2.99C5.68333 2.86 5.37167 2.78571 5.04167 2.78571ZM16.9583 2.78571C16.6283 2.78571 16.3167 2.86 16.0417 2.99C16.0417 3.07357 16.0417 3.16643 16.0417 3.25C16.0417 4.36429 15.6842 5.44143 15.015 6.32357C15.125 6.5 15.2442 6.63929 15.3817 6.77857C15.5283 6.91786 15.675 7.03857 15.8492 7.13143C16.1792 7.31714 16.555 7.42857 16.9583 7.42857C17.3617 7.42857 17.7375 7.31714 18.0675 7.13143C18.7642 6.73214 19.25 5.98 19.25 5.10714C19.25 4.49146 19.0086 3.901 18.5788 3.46564C18.149 3.03029 17.5661 2.78571 16.9583 2.78571ZM11 8.35714C8.855 8.35714 4.58333 9.44357 4.58333 11.6071V13H17.4167V11.6071C17.4167 9.44357 13.145 8.35714 11 8.35714ZM4.3175 8.86786C2.54833 9.08143 0 9.99143 0 11.6071V13H2.75V11.2079C2.75 10.27 3.3825 9.49 4.3175 8.86786ZM17.6825 8.86786C18.6175 9.49 19.25 10.27 19.25 11.2079V13H22V11.6071C22 9.99143 19.4517 9.08143 17.6825 8.86786ZM11 10.2143C12.4025 10.2143 13.97 10.6786 14.8775 11.1429H7.1225C8.03 10.6786 9.5975 10.2143 11 10.2143Z" fill="#161616"/>
</svg>
