<svg width="5" height="10" viewBox="0 0 5 10" fill="none" xmlns="http://www.w3.org/2000/svg">
<path fill-rule="evenodd" clip-rule="evenodd" d="M4.99891 7.51484C4.98844 8.88906 3.87406 10.0003 2.5 10.0003C1.12578 10.0003 0.0115625 8.88906 0.0009375 7.51484H0V3.13172V2.50484V1.87875C0 0.840937 0.839375 0 1.875 0C2.91047 0 3.75 0.840937 3.75 1.87875V2.50484V3.13172V5.32797V6.11703V7.51484H3.74797C3.73734 8.1975 3.18359 8.74766 2.5 8.74766C1.81625 8.74766 1.26266 8.1975 1.25203 7.51484H1.25V6.88875V6.11703V5.32797V4.38375V3.64828V2.93797V2.50484H1.875V3.11188V3.75734V5.07219V5.74875V6.41687V6.88875V7.51484C1.875 7.86063 2.15484 8.14094 2.5 8.14094C2.84516 8.14094 3.125 7.86063 3.125 7.51484V6.41687V5.74875V5.07219V4.38375V3.27656V3.13172V2.50484V1.87875H3.12359C3.12375 1.87234 3.125 1.86594 3.125 1.85938C3.125 1.16734 2.56531 0.606719 1.875 0.606719C1.18453 0.606719 0.625 1.16734 0.625 1.85938C0.625 1.86594 0.62625 1.87234 0.626406 1.87875H0.625V2.50484V3.13172V3.27656V4.38375V5.84203V7.51484C0.625 8.55266 1.46438 9.39359 2.5 9.39359C3.53547 9.39359 4.375 8.55266 4.375 7.51484V5.84203V1.87875V1.25266H5V1.87875V7.51484H4.99891Z" fill="#161616"/>
</svg>
