<svg width="19" height="23" viewBox="0 0 19 23" fill="none" xmlns="http://www.w3.org/2000/svg">
<path d="M14.25 8.47368C14.25 14.9258 4.75 14.9258 4.75 8.47368H7.125C7.125 11.7058 11.875 11.7058 11.875 8.47368M19 19.3684V23H0V19.3684C0 16.1363 6.32937 14.5263 9.5 14.5263C12.6706 14.5263 19 16.1363 19 19.3684ZM16.7438 19.3684C16.7438 18.5937 13.0269 16.8263 9.5 16.8263C5.97312 16.8263 2.25625 18.5937 2.25625 19.3684V20.7H16.7438M10.0938 0C10.4262 0 10.6875 0.266316 10.6875 0.605263V4.23684H11.875V1.21053C13.5969 2.02158 14.6537 3.82526 14.5469 5.75C14.5469 5.75 15.3781 5.91947 15.4375 7.26316H3.5625C3.5625 5.91947 4.45312 5.75 4.45312 5.75C4.34625 3.82526 5.40312 2.02158 7.125 1.21053V4.23684H8.3125V0.605263C8.3125 0.266316 8.57375 0 8.90625 0" fill="#161616"/>
</svg>
