<svg width="24" height="24" viewBox="0 0 24 24" fill="none" xmlns="http://www.w3.org/2000/svg">
<path d="M15.6 2.4V10.8H3.804L2.4 12.204V2.4H15.6ZM16.8 0H1.2C0.88174 0 0.576515 0.126428 0.351472 0.351472C0.126428 0.576515 0 0.88174 0 1.2V18L4.8 13.2H16.8C17.1183 13.2 17.4235 13.0736 17.6485 12.8485C17.8736 12.6235 18 12.3183 18 12V1.2C18 0.88174 17.8736 0.576515 17.6485 0.351472C17.4235 0.126428 17.1183 0 16.8 0ZM22.8 4.8H20.4V15.6H4.8V18C4.8 18.3183 4.92643 18.6235 5.15147 18.8485C5.37652 19.0736 5.68174 19.2 6 19.2H19.2L24 24V6C24 5.68174 23.8736 5.37652 23.6485 5.15147C23.4235 4.92643 23.1183 4.8 22.8 4.8Z" fill="#161616"/>
</svg>
