<svg width="12" height="16" viewBox="0 0 12 16" fill="none" xmlns="http://www.w3.org/2000/svg">
<path d="M6 0C5.00544 0 4.05161 0.401359 3.34835 1.11578C2.64509 1.83021 2.25 2.79918 2.25 3.80952V5.33333H1.5C1.10218 5.33333 0.720644 5.49388 0.43934 5.77965C0.158035 6.06542 0 6.453 0 6.85714V14.4762C0 14.8803 0.158035 15.2679 0.43934 15.5537C0.720644 15.8395 1.10218 16 1.5 16H10.5C10.8978 16 11.2794 15.8395 11.5607 15.5537C11.842 15.2679 12 14.8803 12 14.4762V6.85714C12 6.453 11.842 6.06542 11.5607 5.77965C11.2794 5.49388 10.8978 5.33333 10.5 5.33333H9.75V3.80952C9.75 3.30925 9.653 2.81387 9.46455 2.35168C9.27609 1.88949 8.99987 1.46953 8.65165 1.11578C8.30343 0.762037 7.89003 0.481429 7.43506 0.289983C6.98009 0.0985363 6.49246 0 6 0ZM6 1.44762C7.2825 1.44762 8.325 2.50667 8.325 3.80952V5.33333H3.675V3.80952C3.675 2.50667 4.7175 1.44762 6 1.44762ZM6.1425 7.2381C6.8475 7.2381 7.41 7.3981 7.815 7.71048C8.22 8.03048 8.4225 8.45714 8.4225 8.99048C8.4225 9.32572 8.31 9.62286 8.0925 9.90476C7.875 10.179 7.59 10.3924 7.245 10.5524C7.05 10.6667 6.9225 10.781 6.855 10.9105C6.7875 11.0476 6.75 11.2152 6.75 11.4286H5.25C5.25 11.0476 5.325 10.7886 5.4675 10.6057C5.625 10.4229 5.88 10.2095 6.27 9.96571C6.465 9.85905 6.6225 9.7219 6.75 9.55429C6.855 9.39429 6.915 9.20381 6.915 8.99048C6.915 8.7619 6.8475 8.59429 6.7125 8.46476C6.5775 8.32762 6.375 8.26667 6.1425 8.26667C5.94 8.26667 5.775 8.32 5.625 8.42667C5.505 8.53333 5.43 8.69333 5.43 8.90667H3.9525C3.915 8.38095 4.125 7.92381 4.5375 7.64952C4.9425 7.37524 5.475 7.2381 6.1425 7.2381ZM5.25 12.1905H6.75V13.7143H5.25V12.1905Z" fill="black"/>
</svg>
