<svg width="24" height="24" viewBox="0 0 24 24" fill="none" xmlns="http://www.w3.org/2000/svg">
<path d="M17.3333 18V14.4H8V9.6H17.3333V6L24 12L17.3333 18ZM14.6667 0C15.3739 0 16.0522 0.252856 16.5523 0.702944C17.0524 1.15303 17.3333 1.76348 17.3333 2.4V4.8H14.6667V2.4H2.66667V21.6H14.6667V19.2H17.3333V21.6C17.3333 22.2365 17.0524 22.847 16.5523 23.2971C16.0522 23.7471 15.3739 24 14.6667 24H2.66667C1.95942 24 1.28115 23.7471 0.781048 23.2971C0.280951 22.847 0 22.2365 0 21.6V2.4C0 1.76348 0.280951 1.15303 0.781048 0.702944C1.28115 0.252856 1.95942 0 2.66667 0H14.6667Z" fill="#161616"/>
</svg>
