<svg width="23" height="24" viewBox="0 0 23 24" fill="none" xmlns="http://www.w3.org/2000/svg">
<path d="M21.9774 7.6399C21.4036 6.23059 20.5688 4.94963 19.5196 3.8684C18.4735 2.7853 17.2309 1.92416 15.8623 1.33389C14.4602 0.726271 12.9538 0.414804 11.4326 0.417993H11.3814C9.83407 0.425889 8.3379 0.741716 6.92868 1.36284C5.57181 1.95916 4.34085 2.82183 3.3046 3.90262C2.26554 4.98141 1.44032 6.2579 0.874915 7.66096C0.287991 9.11998 -0.00940498 10.6851 0.000226681 12.2641C0.00789938 14.0907 0.432456 15.904 1.2253 17.5253V21.5258C1.2253 22.1943 1.75216 22.7364 2.39922 22.7364H6.28161C7.86442 23.5583 9.61107 23.9908 11.384 23.9997H11.4377C12.9671 23.9997 14.4479 23.6944 15.8444 23.097C17.206 22.5138 18.444 21.6627 19.4889 20.5914C20.5426 19.515 21.3713 18.257 21.9518 16.8542C22.5529 15.4014 22.8598 13.8564 22.8674 12.2615C22.8726 10.6587 22.5708 9.10323 21.9774 7.6399ZM6.32765 13.4722C5.65245 13.4722 5.10257 12.9063 5.10257 12.2089C5.10257 11.5114 5.65245 10.9456 6.32765 10.9456C7.00285 10.9456 7.55272 11.5114 7.55272 12.2089C7.55272 12.9063 7.0054 13.4722 6.32765 13.4722ZM11.4326 13.4722C10.7574 13.4722 10.2075 12.9063 10.2075 12.2089C10.2075 11.5114 10.7574 10.9456 11.4326 10.9456C12.1077 10.9456 12.6576 11.5114 12.6576 12.2089C12.6576 12.9063 12.1077 13.4722 11.4326 13.4722ZM16.5375 13.4722C15.8623 13.4722 15.3124 12.9063 15.3124 12.2089C15.3124 11.5114 15.8623 10.9456 16.5375 10.9456C17.2127 10.9456 17.7625 11.5114 17.7625 12.2089C17.7625 12.9063 17.2127 13.4722 16.5375 13.4722Z" fill="#303030"/>
</svg>
