<svg width="20" height="24" viewBox="0 0 20 24" fill="none" xmlns="http://www.w3.org/2000/svg">
<path d="M9.597 24C8.96068 24 8.35042 23.7471 7.90047 23.2971C7.45053 22.847 7.19775 22.2365 7.19775 21.6H11.9962C11.9962 22.2365 11.7435 22.847 11.2935 23.2971C10.8436 23.7471 10.2333 24 9.597 24ZM19.194 20.4H0V18L2.39925 16.8V10.2C2.33605 8.50694 2.71827 6.82695 3.5077 5.328C3.89619 4.64073 4.42593 4.04366 5.062 3.57618C5.69806 3.1087 6.42599 2.78145 7.19775 2.616V5.00053e-06H11.5716C10.8116 0.849615 10.3399 1.91803 10.2241 3.05221C10.1084 4.18638 10.3544 5.32812 10.927 6.31386C11.4996 7.29959 12.3694 8.07875 13.4118 8.53971C14.4542 9.00068 15.6157 9.1198 16.73 8.88C16.772 9.3084 16.7923 9.7524 16.7923 10.2V16.8L19.1916 18V20.4H19.194ZM15.5951 7.2C15.1225 7.19922 14.6547 7.10532 14.2184 6.92367C13.782 6.74203 13.3857 6.47619 13.0521 6.14135C12.7185 5.8065 12.454 5.40919 12.2739 4.97212C12.0938 4.53505 12.0015 4.06676 12.0022 3.594C12.003 3.12125 12.0969 2.65327 12.2785 2.2168C12.4601 1.78033 12.7258 1.38391 13.0606 1.05018C13.3953 0.716444 13.7925 0.451932 14.2294 0.271743C14.6664 0.0915537 15.1345 -0.000782938 15.6071 5.00053e-06C16.5616 0.00159631 17.4764 0.382407 18.1502 1.05866C18.8239 1.73492 19.2016 2.65123 19.2 3.606C19.1984 4.56078 18.8177 5.47583 18.1417 6.14983C17.4656 6.82384 16.5496 7.20159 15.5951 7.2Z" fill="#303030"/>
</svg>
