<svg width="23" height="21" viewBox="0 0 23 21" fill="none" xmlns="http://www.w3.org/2000/svg">
<path d="M18.1 16.8C18.6835 16.8 19.2431 17.0212 19.6556 17.4151C20.0682 17.8089 20.3 18.343 20.3 18.9C20.3 19.457 20.0682 19.9911 19.6556 20.3849C19.2431 20.7787 18.6835 21 18.1 21C16.879 21 15.9 20.055 15.9 18.9C15.9 17.7345 16.879 16.8 18.1 16.8ZM0.5 0H4.097L5.131 2.1H21.4C21.6917 2.1 21.9715 2.21062 22.1778 2.40754C22.3841 2.60445 22.5 2.87152 22.5 3.15C22.5 3.3285 22.445 3.507 22.368 3.675L18.43 10.4685C18.056 11.109 17.33 11.55 16.505 11.55H8.31L7.32 13.2615L7.287 13.3875C7.287 13.4571 7.31597 13.5239 7.36755 13.5731C7.41912 13.6223 7.48907 13.65 7.562 13.65H20.3V15.75H7.1C5.879 15.75 4.9 14.805 4.9 13.65C4.9 13.2825 4.999 12.936 5.164 12.642L6.66 10.0695L2.7 2.1H0.5V0ZM7.1 16.8C7.68348 16.8 8.24305 17.0212 8.65563 17.4151C9.06821 17.8089 9.3 18.343 9.3 18.9C9.3 19.457 9.06821 19.9911 8.65563 20.3849C8.24305 20.7787 7.68348 21 7.1 21C5.879 21 4.9 20.055 4.9 18.9C4.9 17.7345 5.879 16.8 7.1 16.8ZM17 9.45L20.058 4.2H6.154L8.75 9.45H17Z" fill="#161616"/>
</svg>
