<svg width="24" height="24" viewBox="0 0 24 24" fill="none" xmlns="http://www.w3.org/2000/svg">
<path d="M10.6667 16H18.6667V18.6667H10.6667V16ZM8 5.33333H5.33333V8H8V5.33333ZM10.6667 13.3333H18.6667V10.6667H10.6667V13.3333ZM10.6667 8H18.6667V5.33333H10.6667V8ZM8 10.6667H5.33333V13.3333H8V10.6667ZM24 2.66667V21.3333C24 22.8 22.8 24 21.3333 24H2.66667C1.2 24 0 22.8 0 21.3333V2.66667C0 1.2 1.2 0 2.66667 0H21.3333C22.8 0 24 1.2 24 2.66667ZM21.3333 2.66667H2.66667V21.3333H21.3333V2.66667ZM8 16H5.33333V18.6667H8V16Z" fill="#161616"/>
</svg>
