<svg width="24" height="22" viewBox="0 0 24 22" fill="none" xmlns="http://www.w3.org/2000/svg">
<path d="M2.82667 2.66667H21.16L19.9067 1.33333H3.90667L2.82667 2.66667ZM23.3867 2.97333C23.7733 3.42667 24 4 24 4.66667V21.3333C24 22.0406 23.719 22.7189 23.219 23.219C22.7189 23.719 22.0406 24 21.3333 24H2.66667C1.95942 24 1.28115 23.719 0.781048 23.219C0.280951 22.7189 0 22.0406 0 21.3333V4.66667C0 4 0.226667 3.42667 0.613333 2.97333L2.45333 0.733333C2.82667 0.28 3.37333 0 4 0H20C20.6267 0 21.1733 0.28 21.5333 0.733333L23.3867 2.97333ZM4 20H12V16H4V20Z" fill="#161616"/>
</svg>
