<svg width="21" height="22" viewBox="0 0 21 22" fill="none" xmlns="http://www.w3.org/2000/svg">
<path d="M15 12C14.87 12 14.76 12.09 14.74 12.21L14.55 13.53C14.25 13.66 13.96 13.82 13.7 14L12.46 13.5C12.35 13.5 12.22 13.5 12.15 13.63L11.15 15.36C11.09 15.47 11.11 15.6 11.21 15.68L12.27 16.5C12.25 16.67 12.24 16.83 12.24 17C12.24 17.17 12.25 17.33 12.27 17.5L11.21 18.32C11.12 18.4 11.09 18.53 11.15 18.64L12.15 20.37C12.21 20.5 12.34 20.5 12.46 20.5L13.7 20C13.96 20.18 14.24 20.35 14.55 20.47L14.74 21.79C14.76 21.91 14.86 22 15 22H17C17.11 22 17.22 21.91 17.24 21.79L17.43 20.47C17.73 20.34 18 20.18 18.27 20L19.5 20.5C19.63 20.5 19.76 20.5 19.83 20.37L20.83 18.64C20.89 18.53 20.86 18.4 20.77 18.32L19.7 17.5C19.72 17.33 19.74 17.17 19.74 17C19.74 16.83 19.73 16.67 19.7 16.5L20.76 15.68C20.85 15.6 20.88 15.47 20.82 15.36L19.82 13.63C19.76 13.5 19.63 13.5 19.5 13.5L18.27 14C18 13.82 17.73 13.65 17.42 13.53L17.23 12.21C17.22 12.09 17.11 12 17 12H15ZM16 15.5C16.83 15.5 17.5 16.17 17.5 17C17.5 17.83 16.83 18.5 16 18.5C15.16 18.5 14.5 17.83 14.5 17C14.5 16.17 15.17 15.5 16 15.5ZM8 4H10V6H8V4ZM14 6H12V4H14V6ZM12 8H14V10H12V8ZM8 8H10V10H8V8ZM11.11 22H0V0H18V10.29C17.37 10.11 16.7 10 16 10V2H2V20H8V16.5H9.03C9 16.67 9 16.83 9 17C9 18.96 9.81 20.73 11.11 22ZM6 14H4V12H6V14ZM6 10H4V8H6V10ZM6 6H4V4H6V6ZM4 16H6V18H4V16ZM8 12H10V13.41C9.89 13.6 9.78 13.8 9.68 14H8V12Z" fill="black"/>
</svg>
