<svg width="12" height="12" viewBox="0 0 12 12" fill="none" xmlns="http://www.w3.org/2000/svg">
<g clip-path="url(#clip0_283_4363)">
<path fill-rule="evenodd" clip-rule="evenodd" d="M1.69519 6.0177L9.07715 9.16064L9.91403 2.14941L1.69519 6.0177ZM9.25092 9.64839C9.22187 9.64839 9.19302 9.64247 9.16605 9.63121L1.12276 6.20667C1.04951 6.17546 1.00157 6.10654 0.999912 6.03012C0.998459 5.95369 1.04349 5.88319 1.1155 5.84922L10.0708 1.63475C10.1386 1.60275 10.2198 1.60848 10.282 1.65015C10.3443 1.69162 10.3775 1.76212 10.369 1.83401L9.45698 9.47323C9.44951 9.53563 9.41112 9.59132 9.35364 9.62233C9.32189 9.63971 9.2864 9.64839 9.25092 9.64839Z" fill="#161616"/>
<path d="M1.69519 6.0177L1.63131 5.88199L1.32838 6.02456L1.63643 6.15572L1.69519 6.0177ZM9.07715 9.16064L9.01839 9.29865L9.20239 9.37699L9.22609 9.17842L9.07715 9.16064ZM9.91403 2.14941L10.063 2.16719L10.0951 1.89843L9.85016 2.0137L9.91403 2.14941ZM9.16605 9.63121L9.10729 9.76923L9.10829 9.76965L9.16605 9.63121ZM1.12276 6.20667L1.06397 6.34467L1.064 6.34468L1.12276 6.20667ZM0.999912 6.03012L0.849939 6.03297L0.849947 6.03337L0.999912 6.03012ZM1.1155 5.84922L1.05162 5.7135L1.0515 5.71356L1.1155 5.84922ZM10.0708 1.63475L10.1347 1.77047L10.1348 1.77042L10.0708 1.63475ZM10.282 1.65015L10.1986 1.7748L10.1989 1.77499L10.282 1.65015ZM10.369 1.83401L10.5179 1.85179L10.5179 1.85164L10.369 1.83401ZM9.45698 9.47323L9.60591 9.49106L9.60592 9.49101L9.45698 9.47323ZM9.35364 9.62233L9.28242 9.49031L9.28161 9.49075L9.35364 9.62233ZM1.63643 6.15572L9.01839 9.29865L9.13591 9.02263L1.75395 5.87969L1.63643 6.15572ZM9.22609 9.17842L10.063 2.16719L9.76509 2.13164L8.9282 9.14286L9.22609 9.17842ZM9.85016 2.0137L1.63131 5.88199L1.75907 6.15342L9.97791 2.28513L9.85016 2.0137ZM9.25092 9.49839C9.24227 9.49839 9.23302 9.49662 9.22381 9.49278L9.10829 9.76965C9.15303 9.78831 9.20147 9.79839 9.25092 9.79839V9.49839ZM9.22481 9.4932L1.18152 6.06866L1.064 6.34468L9.10729 9.76923L9.22481 9.4932ZM1.18154 6.06867C1.15966 6.05934 1.15019 6.04131 1.14988 6.02686L0.849947 6.03337C0.852954 6.17178 0.939357 6.29159 1.06397 6.34467L1.18154 6.06867ZM1.14988 6.02727C1.14961 6.01298 1.15809 5.99498 1.17949 5.98489L1.0515 5.71356C0.928887 5.7714 0.847305 5.8944 0.849939 6.03297L1.14988 6.02727ZM1.17937 5.98495L10.1347 1.77047L10.0069 1.49902L1.05162 5.7135L1.17937 5.98495ZM10.1348 1.77042C10.1555 1.76066 10.1806 1.76276 10.1986 1.7748L10.3655 1.5255C10.259 1.4542 10.1218 1.44485 10.0068 1.49907L10.1348 1.77042ZM10.1989 1.77499C10.2158 1.78627 10.2217 1.80258 10.22 1.81638L10.5179 1.85164C10.5333 1.72167 10.4728 1.59697 10.3652 1.52531L10.1989 1.77499ZM10.22 1.81623L9.30803 9.45545L9.60592 9.49101L10.5179 1.85179L10.22 1.81623ZM9.30804 9.4554C9.30657 9.46764 9.29852 9.48163 9.28243 9.49031L9.42485 9.75435C9.52372 9.70102 9.59244 9.60362 9.60591 9.49106L9.30804 9.4554ZM9.28161 9.49075C9.27267 9.49564 9.26207 9.49839 9.25092 9.49839V9.79839C9.31074 9.79839 9.37111 9.78377 9.42566 9.7539L9.28161 9.49075Z" fill="#161616"/>
<path fill-rule="evenodd" clip-rule="evenodd" d="M4.90087 10.8822C4.88199 10.8822 4.8629 10.8797 4.84402 10.8747C4.75416 10.8502 4.69274 10.7718 4.69336 10.6832L4.7193 7.52344C4.71972 7.47624 4.73798 7.43082 4.77056 7.39528L10.0027 1.68289C10.0782 1.60074 10.2094 1.59225 10.2957 1.66374C10.382 1.73562 10.391 1.86023 10.3156 1.94239L5.13391 7.59967L5.11419 9.97282L6.25757 8.18935C6.31754 8.09614 6.44516 8.06672 6.5429 8.12359C6.64064 8.18027 6.67156 8.30212 6.61179 8.39493L5.07809 10.7876C5.0397 10.8475 4.97184 10.8822 4.90087 10.8822Z" fill="#161616"/>
<path d="M4.90087 10.8822C4.88199 10.8822 4.8629 10.8797 4.84402 10.8747C4.75416 10.8502 4.69274 10.7718 4.69336 10.6832L4.7193 7.52344C4.71972 7.47624 4.73798 7.43082 4.77056 7.39528L10.0027 1.68289C10.0782 1.60074 10.2094 1.59225 10.2957 1.66374C10.382 1.73562 10.391 1.86023 10.3156 1.94239L5.13391 7.59967L5.11419 9.97282L6.25757 8.18935C6.31754 8.09614 6.44516 8.06672 6.5429 8.12359C6.64064 8.18027 6.67156 8.30212 6.61179 8.39493L5.07809 10.7876C5.0397 10.8475 4.97184 10.8822 4.90087 10.8822" stroke="#161616" stroke-width="0.3"/>
</g>
<rect x="1" y="1" width="10" height="10" stroke="black" stroke-miterlimit="0" stroke-linejoin="bevel"/>
<defs>
<clipPath id="clip0_283_4363">
<rect x="1" y="1" width="10" height="10" fill="white"/>
</clipPath>
</defs>
</svg>
