<svg width="22" height="24" viewBox="0 0 22 24" fill="none" xmlns="http://www.w3.org/2000/svg">
<path d="M6.11111 11.675V-1H3.66667V11.675C1.56444 12.2375 0 14.175 0 16.5C0 18.825 1.56444 20.7625 3.66667 21.325V24H6.11111V21.325C8.21333 20.7625 9.77778 18.825 9.77778 16.5C9.77778 14.175 8.21333 12.2375 6.11111 11.675ZM4.88889 14C6.23333 14 7.33333 15.125 7.33333 16.5C7.33333 17.875 6.23333 19 4.88889 19C3.54444 19 2.44444 17.875 2.44444 16.5C2.44444 15.125 3.54444 14 4.88889 14ZM18.3333 -1H15.8889V1.675C13.7867 2.2375 12.2222 4.175 12.2222 6.5C12.2222 8.825 13.7867 10.7625 15.8889 11.325V24H18.3333V11.325C20.4356 10.7625 22 8.825 22 6.5C22 4.175 20.4356 2.2375 18.3333 1.675V-1ZM17.1111 4C18.4556 4 19.5556 5.125 19.5556 6.5C19.5556 7.875 18.4556 9 17.1111 9C15.7667 9 14.6667 7.875 14.6667 6.5C14.6667 5.125 15.7667 4 17.1111 4Z" fill="#161616"/>
</svg>
