<svg width="27" height="30" viewBox="0 0 27 30" fill="none" xmlns="http://www.w3.org/2000/svg">
<path d="M13.5 0.5C6.05118 0.5 0 6.215 0 13.25C0 20.285 6.05118 26 13.5 26H14.2941V30.5C22.0129 26.99 27 20 27 13.25C27 6.215 20.9488 0.5 13.5 0.5ZM15.0882 22.25H11.9118V19.25H15.0882V22.25ZM15.0882 17H11.9118C11.9118 12.125 16.6765 12.5 16.6765 9.5C16.6765 7.85 15.2471 6.5 13.5 6.5C11.7529 6.5 10.3235 7.85 10.3235 9.5H7.14706C7.14706 6.185 9.99 3.5 13.5 3.5C17.01 3.5 19.8529 6.185 19.8529 9.5C19.8529 13.25 15.0882 13.625 15.0882 17Z" fill="#161616"/>
</svg>
