<svg width="14" height="17" viewBox="0 0 14 17" fill="none" xmlns="http://www.w3.org/2000/svg">
<path d="M13.5 1.06251H9.75L9.45625 0.441607C9.39402 0.308866 9.29817 0.197207 9.17947 0.119191C9.06078 0.0411758 8.92395 -0.000100538 8.78438 5.82141e-06H5.2125C5.07324 -0.000562966 4.93665 0.0405594 4.81838 0.118662C4.7001 0.196764 4.60492 0.308687 4.54375 0.441607L4.25 1.06251H0.5C0.367392 1.06251 0.240215 1.11848 0.146447 1.2181C0.0526784 1.31773 0 1.45286 0 1.59376L0 2.65626C0 2.79715 0.0526784 2.93228 0.146447 3.03191C0.240215 3.13153 0.367392 3.1875 0.5 3.1875H13.5C13.6326 3.1875 13.7598 3.13153 13.8536 3.03191C13.9473 2.93228 14 2.79715 14 2.65626V1.59376C14 1.45286 13.9473 1.31773 13.8536 1.2181C13.7598 1.11848 13.6326 1.06251 13.5 1.06251ZM1.6625 15.5059C1.68635 15.9105 1.85443 16.2902 2.13252 16.5678C2.41061 16.8454 2.77781 16.9999 3.15937 17H10.8406C11.2222 16.9999 11.5894 16.8454 11.8675 16.5678C12.1456 16.2902 12.3137 15.9105 12.3375 15.5059L13 4.25H1L1.6625 15.5059Z" fill="black"/>
</svg>
